<?xml version="1.0" encoding="UTF-8" standalone="no"?>
<!-- Generator: Adobe Illustrator 24.3.0, SVG Export Plug-In . SVG Version: 6.00 Build 0)  -->

<svg
   version="1.1"
   id="Logo"
   x="0px"
   y="0px"
   viewBox="0 0 104.18714 104.18714"
   xml:space="preserve"
   sodipodi:docname="unity.svg"
   inkscape:version="1.1.1 (3bf5ae0d25, 2021-09-20)"
   width="104.18716"
   height="104.18716"
   xmlns:inkscape="http://www.inkscape.org/namespaces/inkscape"
   xmlns:sodipodi="http://sodipodi.sourceforge.net/DTD/sodipodi-0.dtd"
   xmlns="http://www.w3.org/2000/svg"
   xmlns:svg="http://www.w3.org/2000/svg"><defs
   id="defs31" /><sodipodi:namedview
   id="namedview29"
   pagecolor="#ffffff"
   bordercolor="#666666"
   borderopacity="1.0"
   inkscape:pageshadow="2"
   inkscape:pageopacity="0.0"
   inkscape:pagecheckerboard="0"
   showgrid="false"
   inkscape:zoom="3.9768856"
   inkscape:cx="80.464975"
   inkscape:cy="49.53625"
   inkscape:window-width="1894"
   inkscape:window-height="1022"
   inkscape:window-x="9"
   inkscape:window-y="41"
   inkscape:window-maximized="1"
   inkscape:current-layer="Logo" />
<style
   type="text/css"
   id="style2">
	.st0{fill:#FFFFFF;}
	.st1{fill:#CCCCCC;}
	.st2{fill:#A6A6A6;}
</style>








<rect
   style="fill:#000000;fill-opacity:1;stroke-width:2.502"
   id="rect3099"
   width="104.18716"
   height="104.18716"
   x="0"
   y="0" /><g
   id="g1259"
   transform="translate(-38.269373,-39.802302)"><g
     id="g1182"><path
       class="st1"
       d="M 133.14295,111.19588 V 66.115881 l -39.039997,-22.54 v 17.29 l 15.299997,8.83 c 0.55,0.31 0.57,1.17 0,1.48 0,0 -18.179997,10.5 -18.179997,10.5 -0.55,0.32 -1.2,0.3 -1.71,0 l -18.18,-10.5 c -0.56,-0.3 -0.57,-1.18 0,-1.48 l 15.29,-8.83 v -17.29 l -39.04,22.54 v 45.079999 -0.21 0.21 l 14.97,-8.64 V 84.895881 c -0.01,-0.63 0.73,-1.08 1.28,-0.74 l 18.18,10.5 c 0.55,0.32 0.86,0.89 0.86,1.48 v 20.989999 c 0.01,0.63 -0.73,1.08 -1.28,0.74 l -15.3,-8.83 -14.97,8.64 39.04,22.54 39.039997,-22.54 -14.97,-8.64 -15.299997,8.83 c -0.54,0.33 -1.3,-0.1 -1.28,-0.74 0,0 0,-20.989999 0,-20.989999 0,-0.63 0.35,-1.19 0.86,-1.48 l 18.179997,-10.5 c 0.54,-0.33 1.3,0.09 1.28,0.74 v 17.659999 z"
       id="path14" /><path
       class="st2"
       d="m 90.362953,140.21588 39.039997,-22.54 -14.97,-8.64 -15.299997,8.83 c -0.54,0.33 -1.3,-0.1 -1.28,-0.74 0,0 0,-20.989999 0,-20.989999 0,-0.63 0.35,-1.19 0.86,-1.48 l 18.179997,-10.5 c 0.54,-0.33 1.3,0.09 1.28,0.74 0,0 0,17.659999 0,17.659999 l 14.97,8.64 V 66.115881 l -42.779997,24.7 z"
       id="path16" /><path
       class="st0"
       d="m 94.102953,43.575881 v 17.29 l 15.299997,8.83 c 0.55,0.31 0.57,1.17 0,1.48 0,0 -18.179997,10.5 -18.179997,10.5 -0.55,0.32 -1.2,0.3 -1.71,0 l -18.18,-10.5 c -0.56,-0.3 -0.57,-1.18 0,-1.48 0,0 15.29,-8.83 15.29,-8.83 v -17.29 l -39.04,22.54 42.78,24.7 42.779997,-24.7 z"
       id="path18" /><path
       class="st1"
       d="m 81.602953,117.86588 -15.3,-8.83 -14.97,8.64 39.04,22.54 V 90.815881 l -42.78,-24.7 v 45.079999 -0.21 0.21 l 14.97,-8.64 V 84.895881 c -0.01,-0.63 0.73,-1.08 1.28,-0.74 0,0 18.18,10.5 18.18,10.5 0.55,0.32 0.86,0.89 0.86,1.48 v 20.989999 c 0.01,0.63 -0.73,1.08 -1.28,0.74 z"
       id="path20" /></g></g>

</svg>
