<?xml version="1.0" encoding="UTF-8" standalone="no"?>
<!-- Generator: Adobe Illustrator 24.3.0, SVG Export Plug-In . SVG Version: 6.00 Build 0)  -->

<svg
   version="1.1"
   id="Logo"
   x="0px"
   y="0px"
   viewBox="0 0 87.760065 98.839994"
   xml:space="preserve"
   sodipodi:docname="unity.svg"
   width="87.760063"
   height="98.839996"
   inkscape:version="1.1.1 (3bf5ae0d25, 2021-09-20)"
   xmlns:inkscape="http://www.inkscape.org/namespaces/inkscape"
   xmlns:sodipodi="http://sodipodi.sourceforge.net/DTD/sodipodi-0.dtd"
   xmlns="http://www.w3.org/2000/svg"
   xmlns:svg="http://www.w3.org/2000/svg"><defs
   id="defs31" /><sodipodi:namedview
   id="namedview29"
   pagecolor="#ffffff"
   bordercolor="#666666"
   borderopacity="1.0"
   inkscape:pageshadow="2"
   inkscape:pageopacity="0.0"
   inkscape:pagecheckerboard="0"
   showgrid="false"
   inkscape:zoom="7.9537712"
   inkscape:cx="73.04711"
   inkscape:cy="49.159071"
   inkscape:window-width="1894"
   inkscape:window-height="1022"
   inkscape:window-x="9"
   inkscape:window-y="41"
   inkscape:window-maximized="1"
   inkscape:current-layer="Logo" />
<style
   type="text/css"
   id="style2">
	.st0{fill:#4C4C4C;}
	.st1{fill:#808080;}
</style>





<path
   style="fill:none;stroke:#ffffff;stroke-width:2.2;stroke-linecap:butt;stroke-linejoin:miter;stroke-miterlimit:4;stroke-dasharray:none;stroke-opacity:1"
   d="m 43.890064,97.74 39.03,-22.54 3.74,-6.48 V 23.64 l -39.04,-22.54 h -7.48 l -39.03,22.54 -0.01,44.87 3.75,6.69 39.03,22.54 z"
   id="path300" /><path
   class="st0"
   d="M 86.660064,68.72 V 23.64 l -39.04,-22.54 v 17.29 l 15.3,8.83 c 0.55,0.31 0.57,1.17 0,1.48 0,0 -18.18,10.5 -18.18,10.5 -0.55,0.32 -1.2,0.3 -1.71,0 l -18.18,-10.5 c -0.56,-0.3 -0.57,-1.18 0,-1.48 l 15.29,-8.83 V 1.1 l -39.04,22.54 v 45.08 -0.21 0.21 l 14.97,-8.64 V 42.42 c -0.01,-0.63 0.73,-1.08 1.28,-0.74 l 18.18,10.5 c 0.55,0.32 0.86,0.89 0.86,1.48 v 20.99 c 0.01,0.63 -0.73,1.08 -1.28,0.74 l -15.3,-8.83 -14.97,8.64 39.04,22.54 39.04,-22.54 -14.97,-8.64 -15.3,8.83 c -0.54,0.33 -1.3,-0.1 -1.28,-0.74 0,0 0,-20.99 0,-20.99 0,-0.63 0.35,-1.19 0.86,-1.48 l 18.18,-10.5 c 0.54,-0.33 1.3,0.09 1.28,0.74 v 17.66 z"
   id="path14" />
<path
   d="m 43.880064,97.74 39.04,-22.54 -14.97,-8.64 -15.3,8.83 c -0.54,0.33 -1.3,-0.1 -1.28,-0.74 0,0 0,-20.99 0,-20.99 0,-0.63 0.35,-1.19 0.86,-1.48 l 18.18,-10.5 c 0.54,-0.33 1.3,0.09 1.28,0.74 0,0 0,17.66 0,17.66 l 14.97,8.64 V 23.64 l -42.78,24.7 z"
   id="path16" />
<path
   class="st1"
   d="m 47.620064,1.1 v 17.29 l 15.3,8.83 c 0.55,0.31 0.57,1.17 0,1.48 0,0 -18.18,10.5 -18.18,10.5 -0.55,0.32 -1.2,0.3 -1.71,0 l -18.18,-10.5 c -0.56,-0.3 -0.57,-1.18 0,-1.48 0,0 15.29,-8.83 15.29,-8.83 V 1.1 l -39.04,22.54 42.78,24.7 42.78,-24.7 z"
   id="path18" />
<path
   class="st0"
   d="m 35.120064,75.39 -15.3,-8.83 -14.97,8.64 39.04,22.54 v -49.4 l -42.78,-24.7 v 45.08 -0.21 0.21 l 14.97,-8.64 V 42.42 c -0.01,-0.63 0.73,-1.08 1.28,-0.74 0,0 18.18,10.5 18.18,10.5 0.55,0.32 0.86,0.89 0.86,1.48 v 20.99 c 0.01,0.63 -0.73,1.08 -1.28,0.74 z"
   id="path20" />

</svg>
