<?xml version="1.0" encoding="UTF-8" standalone="no"?>
<!-- Generator: Adobe Illustrator 24.3.0, SVG Export Plug-In . SVG Version: 6.00 Build 0)  -->

<svg
   version="1.1"
   id="Logo"
   x="0px"
   y="0px"
   viewBox="0 0 85.559999 96.639997"
   xml:space="preserve"
   sodipodi:docname="U_Logo_Black_RGB.svg"
   width="85.559998"
   height="96.639999"
   inkscape:version="1.1.1 (3bf5ae0d25, 2021-09-20)"
   xmlns:inkscape="http://www.inkscape.org/namespaces/inkscape"
   xmlns:sodipodi="http://sodipodi.sourceforge.net/DTD/sodipodi-0.dtd"
   xmlns="http://www.w3.org/2000/svg"
   xmlns:svg="http://www.w3.org/2000/svg"><defs
   id="defs31" /><sodipodi:namedview
   id="namedview29"
   pagecolor="#ffffff"
   bordercolor="#666666"
   borderopacity="1.0"
   inkscape:pageshadow="2"
   inkscape:pageopacity="0.0"
   inkscape:pagecheckerboard="0"
   showgrid="false"
   inkscape:zoom="3.9768856"
   inkscape:cx="139.05353"
   inkscape:cy="48.530438"
   inkscape:window-width="1894"
   inkscape:window-height="1022"
   inkscape:window-x="9"
   inkscape:window-y="41"
   inkscape:window-maximized="1"
   inkscape:current-layer="Logo" />
<style
   type="text/css"
   id="style2">
	.st0{fill:#4C4C4C;}
	.st1{fill:#808080;}
</style>





<path
   class="st0"
   d="M 85.56,67.62 V 22.54 L 46.52,0 v 17.29 l 15.3,8.83 c 0.55,0.31 0.57,1.17 0,1.48 0,0 -18.18,10.5 -18.18,10.5 -0.55,0.32 -1.2,0.3 -1.71,0 L 23.75,27.6 c -0.56,-0.3 -0.57,-1.18 0,-1.48 L 39.04,17.29 V 0 L 0,22.54 v 45.08 -0.21 0.21 L 14.97,58.98 V 41.32 c -0.01,-0.63 0.73,-1.08 1.28,-0.74 l 18.18,10.5 c 0.55,0.32 0.86,0.89 0.86,1.48 v 20.99 c 0.01,0.63 -0.73,1.08 -1.28,0.74 L 18.71,65.46 3.74,74.1 42.78,96.64 81.82,74.1 66.85,65.46 51.55,74.29 c -0.54,0.33 -1.3,-0.1 -1.28,-0.74 0,0 0,-20.99 0,-20.99 0,-0.63 0.35,-1.19 0.86,-1.48 l 18.18,-10.5 c 0.54,-0.33 1.3,0.09 1.28,0.74 v 17.66 z"
   id="path14" />
<path
   d="M 42.78,96.64 81.82,74.1 66.85,65.46 51.55,74.29 c -0.54,0.33 -1.3,-0.1 -1.28,-0.74 0,0 0,-20.99 0,-20.99 0,-0.63 0.35,-1.19 0.86,-1.48 l 18.18,-10.5 c 0.54,-0.33 1.3,0.09 1.28,0.74 0,0 0,17.66 0,17.66 l 14.97,8.64 V 22.54 l -42.78,24.7 z"
   id="path16" />
<path
   class="st1"
   d="m 46.52,0 v 17.29 l 15.3,8.83 c 0.55,0.31 0.57,1.17 0,1.48 0,0 -18.18,10.5 -18.18,10.5 -0.55,0.32 -1.2,0.3 -1.71,0 L 23.75,27.6 c -0.56,-0.3 -0.57,-1.18 0,-1.48 0,0 15.29,-8.83 15.29,-8.83 V 0 L 0,22.54 42.78,47.24 85.56,22.54 Z"
   id="path18" />
<path
   class="st0"
   d="M 34.02,74.29 18.72,65.46 3.75,74.1 42.79,96.64 V 47.24 L 0.01,22.54 v 45.08 -0.21 0.21 L 14.98,58.98 V 41.32 c -0.01,-0.63 0.73,-1.08 1.28,-0.74 0,0 18.18,10.5 18.18,10.5 0.55,0.32 0.86,0.89 0.86,1.48 v 20.99 c 0.01,0.63 -0.73,1.08 -1.28,0.74 z"
   id="path20" />

</svg>
